<?xml version="1.0" encoding="UTF-8" standalone="no"?>
<!-- Created with Inkscape (http://www.inkscape.org/) -->

<svg
   width="210mm"
   height="297mm"
   viewBox="0 0 210 297.00001"
   version="1.1"
   id="svg1"
   inkscape:version="1.4.2 (ebf0e94, 2025-05-08)"
   sodipodi:docname="icons.svg"
   xmlns:inkscape="http://www.inkscape.org/namespaces/inkscape"
   xmlns:sodipodi="http://sodipodi.sourceforge.net/DTD/sodipodi-0.dtd"
   xmlns="http://www.w3.org/2000/svg"
   xmlns:svg="http://www.w3.org/2000/svg">
  <sodipodi:namedview
     id="namedview1"
     pagecolor="#ffffff"
     bordercolor="#000000"
     borderopacity="0.25"
     inkscape:showpageshadow="2"
     inkscape:pageopacity="0.0"
     inkscape:pagecheckerboard="0"
     inkscape:deskcolor="#d1d1d1"
     inkscape:document-units="mm"
     inkscape:zoom="3.9458701"
     inkscape:cx="-176.89381"
     inkscape:cy="371.14754"
     inkscape:window-width="1920"
     inkscape:window-height="1017"
     inkscape:window-x="-7"
     inkscape:window-y="1072"
     inkscape:window-maximized="1"
     inkscape:current-layer="layer1">
    <inkscape:page
       x="0"
       y="0"
       width="210"
       height="297.00003"
       id="page20"
       margin="0"
       bleed="0" />
    <inkscape:page
       x="-53.642582"
       y="92.533463"
       width="14"
       height="14.000001"
       id="page21"
       margin="0"
       bleed="0"
       inkscape:export-filename="C:\Users\at\logo1.svg"
       inkscape:export-xdpi="58.057137"
       inkscape:export-ydpi="58.057137" />
  </sodipodi:namedview>
  <defs
     id="defs1" />
  <g
     inkscape:label="Layer 1"
     inkscape:groupmode="layer"
     id="layer1">
    <path
       style="font-weight:bold;font-size:12.3319px;font-family:'Courier New';-inkscape-font-specification:'Courier New, Bold';text-align:center;text-anchor:middle;stroke-width:0.8;stroke-linecap:round;stroke-linejoin:round"
       d="m 61.914824,92.455263 h 2.703625 q 0.222793,-0.18065 0.4215,-0.18065 0.283008,0 0.445587,0.18667 0.1686,0.18666 0.1686,0.63827 v 0.5901 h -5.624021 v -1.30665 q 3.335875,-2.7518 4.02834,-3.5406 0.349244,-0.40344 0.349244,-0.76473 0,-0.4516 -0.397415,-0.79483 -0.391393,-0.34924 -1.04773,-0.34924 -0.662358,0 -1.101922,0.38537 -0.228815,0.20473 -0.367308,0.60817 -0.0843,0.2529 -0.234836,0.36128 -0.144514,0.10839 -0.361286,0.10839 -0.2529,0 -0.439565,-0.18064 -0.180643,-0.18065 -0.180643,-0.4215 0,-0.36129 0.331179,-0.90322 0.3372,-0.54193 0.975473,-0.86709 0.644293,-0.32515 1.396973,-0.32515 1.168158,0 1.914816,0.71053 0.746658,0.7045 0.746658,1.71008 0,0.51183 -0.216772,0.95139 -0.21075,0.43354 -1.023644,1.20429 -0.638272,0.60816 -2.486853,2.17976 z"
       id="path5" />
    <path
       style="font-weight:bold;font-size:12.3319px;font-family:'Courier New';-inkscape-font-specification:'Courier New, Bold';text-align:center;text-anchor:middle;stroke-width:0.8;stroke-linecap:round;stroke-linejoin:round"
       d="m 55.363502,89.456583 v 2.47481 q 0,0.39742 0.162579,0.52387 0.2529,0.1987 0.903215,0.1987 0.945365,0 1.746216,-0.40343 0.307094,-0.15656 0.481715,-0.15656 0.240858,0 0.415479,0.18064 0.180643,0.18065 0.180643,0.43957 0,0.24086 -0.192686,0.41548 -0.29505,0.283 -1.168158,0.52386 -0.867087,0.23484 -1.463209,0.23484 -1.150094,0 -1.728152,-0.49376 -0.572036,-0.49978 -0.572036,-1.22235 v -2.71567 h -0.445586 q -0.445587,0 -0.638273,-0.1686 -0.186664,-0.17462 -0.186664,-0.45161 0,-0.27096 0.186664,-0.43956 0.192686,-0.17462 0.638273,-0.17462 h 0.445586 v -1.11397 q 0,-0.44558 0.1686,-0.63225 0.174622,-0.19268 0.451608,-0.19268 0.270964,0 0.439564,0.19268 0.174622,0.18667 0.174622,0.63225 v 1.11397 h 2.282124 q 0.445586,0 0.632251,0.17462 0.192686,0.1686 0.192686,0.44559 0,0.27096 -0.192686,0.44558 -0.186665,0.1686 -0.632251,0.1686 z"
       id="path4" />
    <path
       style="font-weight:bold;font-size:12.3319px;font-family:'Courier New';-inkscape-font-specification:'Courier New, Bold';text-align:center;text-anchor:middle;stroke-width:0.8;stroke-linecap:round;stroke-linejoin:round"
       d="m 49.191532,90.847533 1.872666,1.60773 q 0.337201,0.0181 0.505801,0.19268 0.1686,0.1686 0.1686,0.42752 0,0.27097 -0.192686,0.44559 -0.186664,0.1686 -0.632251,0.1686 h -1.402994 q -0.445586,0 -0.638272,-0.1686 -0.186665,-0.17462 -0.186665,-0.45763 0,-0.21677 0.132472,-0.37935 0.138493,-0.1686 0.373329,-0.22881 l -0.92128,-0.79483 -0.939344,0.79483 q 0.283008,0.0723 0.403437,0.22279 0.12645,0.15054 0.12645,0.38537 0,0.28301 -0.186665,0.45763 -0.186664,0.1686 -0.632251,0.1686 h -1.390951 q -0.445586,0 -0.638272,-0.1686 -0.186665,-0.17462 -0.186665,-0.45161 0,-0.2529 0.1686,-0.4215 0.168601,-0.17462 0.505801,-0.19268 l 1.830516,-1.61375 -1.619766,-1.38493 q -0.319136,-0.0241 -0.487736,-0.19268 -0.162579,-0.17463 -0.162579,-0.42753 0,-0.27096 0.186665,-0.43956 0.192686,-0.17462 0.638272,-0.17462 h 1.156115 q 0.445587,0 0.632251,0.17462 0.192686,0.1686 0.192686,0.43354 0,0.35527 -0.3372,0.57806 l 0.746658,0.62021 0.734615,-0.63225 q -0.331179,-0.23484 -0.331179,-0.54193 0,-0.28903 0.186664,-0.45763 0.192686,-0.17462 0.638273,-0.17462 h 1.144072 q 0.445586,0 0.632251,0.17462 0.192686,0.1686 0.192686,0.44559 0,0.24687 -0.1686,0.4215 -0.162579,0.1686 -0.487737,0.19268 z"
       id="path3" />
    <path
       id="path1"
       style="font-weight:bold;font-size:12.3319px;font-family:'Courier New';-inkscape-font-specification:'Courier New, Bold';text-align:center;text-anchor:middle;stroke-width:0.8;stroke-linecap:round;stroke-linejoin:round"
       d="m 43.964926,91.582153 h -5.064027 q 0.192686,0.48171 0.680422,0.77676 0.493758,0.29505 1.330737,0.29505 0.686444,0 1.824495,-0.29505 0.469672,-0.12043 0.650315,-0.12043 0.246879,0 0.415479,0.17463 0.168601,0.17462 0.168601,0.43956 0,0.24086 -0.180643,0.40946 -0.240858,0.22279 -1.17418,0.42752 -0.933323,0.19871 -1.794388,0.19871 -1.481273,0 -2.372446,-0.83698 -0.885151,-0.83698 -0.885151,-2.05933 0,-1.30063 0.957409,-2.11353 0.963429,-0.81891 2.215888,-0.81891 0.752679,0 1.378909,0.26494 0.63225,0.26495 0.939343,0.57204 0.433544,0.44558 0.716551,1.10192 0.192686,0.45763 0.192686,1.05977 z m -1.366866,-1.2344 q -0.283007,-0.52988 -0.740636,-0.7888 -0.457629,-0.26495 -1.08988,-0.26495 -0.626229,0 -1.083858,0.26495 -0.457629,0.25892 -0.746658,0.7888 z" />
    <path
       style="font-weight:bold;font-size:12.3319px;font-family:'Courier New';-inkscape-font-specification:'Courier New, Bold';text-align:center;text-anchor:middle;stroke-width:0.8;stroke-linecap:round;stroke-linejoin:round"
       d="m 34.065687,87.626073 v 4.82919 h 0.830958 q 0.445586,0 0.63225,0.17462 0.192686,0.1686 0.192686,0.44558 0,0.27097 -0.192686,0.44559 -0.186664,0.1686 -0.63225,0.1686 h -2.890289 q -0.445587,0 -0.638272,-0.1686 -0.186665,-0.17462 -0.186665,-0.45161 0,-0.27096 0.186665,-0.43956 0.192685,-0.17462 0.638272,-0.17462 h 0.824936 v -4.82919 h -1.336758 v 1.16815 q 0,0.44559 -0.174622,0.63828 -0.1686,0.18666 -0.445586,0.18666 -0.270965,0 -0.445586,-0.18666 -0.168601,-0.19269 -0.168601,-0.63828 v -2.40857 l 6.394765,0.006 v 2.40255 q 0,0.44559 -0.174622,0.63827 -0.1686,0.18667 -0.445586,0.18667 -0.270965,0 -0.445586,-0.18667 -0.1686,-0.19268 -0.1686,-0.63827 v -1.16816 z"
       id="text1" />
    <path
       style="font-weight:bold;font-size:12.3319px;font-family:'Courier New';-inkscape-font-specification:'Courier New, Bold';text-align:center;text-anchor:middle;stroke-width:0.8;stroke-linecap:round;stroke-linejoin:round"
       d="m 33.022584,111.5947 v 4.82919 h 0.830958 q 0.445586,0 0.63225,0.17462 0.192686,0.1686 0.192686,0.44559 0,0.27096 -0.192686,0.44558 -0.186664,0.1686 -0.63225,0.1686 h -2.890289 q -0.445587,0 -0.638272,-0.1686 -0.186665,-0.17462 -0.186665,-0.45161 0,-0.27096 0.186665,-0.43956 0.192685,-0.17462 0.638272,-0.17462 h 0.824936 v -4.82919 h -1.336758 v 1.16815 q 0,0.44559 -0.174622,0.63828 -0.1686,0.18666 -0.445586,0.18666 -0.270965,0 -0.445586,-0.18666 -0.168601,-0.19269 -0.168601,-0.63828 v -2.40857 l 6.394765,0.006 v 2.40255 q 0,0.44559 -0.174622,0.63828 -0.1686,0.18666 -0.445586,0.18666 -0.270965,0 -0.445586,-0.18666 -0.1686,-0.19269 -0.1686,-0.63828 v -1.16816 z"
       id="path6" />
    <path
       style="font-weight:bold;font-size:12.3319px;font-family:'Courier New';-inkscape-font-specification:'Courier New, Bold';text-align:center;text-anchor:middle;stroke-width:0.8;stroke-linecap:round;stroke-linejoin:round"
       d="m 37.346261,115.72382 v 2.47481 q 0,0.39742 0.162579,0.52387 0.2529,0.1987 0.903215,0.1987 0.945365,0 1.746216,-0.40343 0.307094,-0.15656 0.481715,-0.15656 0.240858,0 0.415479,0.18064 0.180643,0.18065 0.180643,0.43957 0,0.24086 -0.192686,0.41548 -0.29505,0.283 -1.168158,0.52386 -0.867087,0.23484 -1.463209,0.23484 -1.150094,0 -1.728152,-0.49376 -0.572036,-0.49978 -0.572036,-1.22235 v -2.71567 h -0.445586 q -0.445587,0 -0.638273,-0.1686 -0.186664,-0.17462 -0.186664,-0.45161 0,-0.27096 0.186664,-0.43956 0.192686,-0.17462 0.638273,-0.17462 h 0.445586 v -1.11397 q 0,-0.44558 0.1686,-0.63225 0.174622,-0.19268 0.451608,-0.19268 0.270964,0 0.439564,0.19268 0.174622,0.18667 0.174622,0.63225 v 1.11397 h 2.282124 q 0.445586,0 0.632251,0.17462 0.192686,0.1686 0.192686,0.44559 0,0.27096 -0.192686,0.44558 -0.186665,0.1686 -0.632251,0.1686 z"
       id="path7" />
    <path
       style="font-weight:bold;font-size:12.3319px;font-family:'Courier New';-inkscape-font-specification:'Courier New, Bold';text-align:center;text-anchor:middle;stroke-width:0.344283;stroke-linecap:round;stroke-linejoin:round"
       d="m 38.74638,113.26188 h 1.163515 q 0.09588,-0.0778 0.181394,-0.0778 0.121793,0 0.19176,0.0803 0.07256,0.0803 0.07256,0.27468 v 0.25395 H 37.93529 v -0.56232 q 1.435606,-1.18425 1.733611,-1.52371 0.150299,-0.17362 0.150299,-0.32911 0,-0.19434 -0.171029,-0.34205 -0.168438,-0.1503 -0.450895,-0.1503 -0.285048,0 -0.474216,0.16584 -0.09847,0.0881 -0.158073,0.26173 -0.03628,0.10884 -0.101062,0.15548 -0.06219,0.0466 -0.155481,0.0466 -0.108836,0 -0.189168,-0.0777 -0.07774,-0.0777 -0.07774,-0.1814 0,-0.15548 0.142524,-0.3887 0.145116,-0.23322 0.419799,-0.37316 0.277274,-0.13993 0.601192,-0.13993 0.502722,0 0.824049,0.30578 0.321327,0.30319 0.321327,0.73594 0,0.22027 -0.09329,0.40944 -0.0907,0.18657 -0.440529,0.51827 -0.274683,0.26172 -1.070226,0.93807 z"
       id="path8" />
    <path
       style="font-weight:bold;font-size:12.3319px;font-family:'Courier New';-inkscape-font-specification:'Courier New, Bold';text-align:center;text-anchor:middle;stroke-width:0.8;stroke-linecap:round;stroke-linejoin:round"
       d="m 55.363502,113.63762 v 2.47481 c 0,0.26494 0.05419,0.43956 0.162579,0.52386 0.1686,0.13247 0.469672,0.19871 0.903215,0.19871 0.630243,0 1.212315,-0.13448 1.746216,-0.40344 0.204729,-0.10437 0.365301,-0.15655 0.481715,-0.15655 0.160572,0 0.299065,0.0602 0.415479,0.18064 0.120429,0.12043 0.180643,0.26695 0.180643,0.43956 0,0.16057 -0.06423,0.29907 -0.192686,0.41548 -0.1967,0.18867 -0.586086,0.3633 -1.168158,0.52387 -0.578058,0.15655 -1.065794,0.23483 -1.463209,0.23483 -0.766729,0 -1.34278,-0.16458 -1.728152,-0.49375 -0.381357,-0.33319 -0.572036,-0.74064 -0.572036,-1.22235 v -2.71567 h -0.445586 c -0.297058,0 -0.509816,-0.0562 -0.638273,-0.1686 -0.124443,-0.11641 -0.186664,-0.26695 -0.186664,-0.45161 0,-0.18064 0.06222,-0.32716 0.186664,-0.43956 0.128457,-0.11642 0.341215,-0.17463 0.638273,-0.17463 h 0.445586 v -1.11396 c 0,-0.29706 0.0562,-0.50781 0.1686,-0.63225 0.116415,-0.12846 0.266951,-0.19269 0.451608,-0.19269 0.180643,0 0.327164,0.0642 0.439564,0.19269 0.116415,0.12444 0.174622,0.33519 0.174622,0.63225 v 1.11396 h 1.223791 c 0.297057,0 -0.124443,-1.11664 0,-1.00022 0.128457,0.1124 1.88327,1.43578 1.88327,1.62043 0,0.18065 -1.754813,1.49815 -1.88327,1.61457 -0.124443,0.1124 0.297057,-1.00038 0,-1.00038 z"
       id="path9"
       sodipodi:nodetypes="cscscscsccscscscscscscscscscscsc" />
    <path
       style="font-weight:bold;font-size:12.3319px;font-family:'Courier New';-inkscape-font-specification:'Courier New, Bold';text-align:center;text-anchor:middle;stroke-width:0.8;stroke-linecap:round;stroke-linejoin:round"
       d="m 31.815626,130.83898 v 4.82919 h 0.830958 q 0.445586,0 0.63225,0.17462 0.192686,0.1686 0.192686,0.44559 0,0.27096 -0.192686,0.44558 -0.186664,0.1686 -0.63225,0.1686 h -2.890289 q -0.445587,0 -0.638272,-0.1686 -0.186665,-0.17462 -0.186665,-0.45161 0,-0.27096 0.186665,-0.43956 0.192685,-0.17462 0.638272,-0.17462 h 0.824936 v -4.82919 h -1.336758 v 1.16815 q 0,0.44559 -0.174622,0.63828 -0.1686,0.18666 -0.445586,0.18666 -0.270965,0 -0.445586,-0.18666 -0.168601,-0.19269 -0.168601,-0.63828 v -2.40857 l 6.394765,0.006 v 2.40255 q 0,0.44559 -0.174622,0.63828 -0.1686,0.18666 -0.445586,0.18666 -0.270965,0 -0.445586,-0.18666 -0.1686,-0.19269 -0.1686,-0.63828 v -1.16816 z"
       id="path10" />
    <path
       style="font-weight:bold;font-size:12.3319px;font-family:'Courier New';-inkscape-font-specification:'Courier New, Bold';text-align:center;text-anchor:middle;stroke-width:0.8;stroke-linecap:round;stroke-linejoin:round"
       d="m 37.045778,130.83898 v 4.82919 h 0.830958 q 0.445586,0 0.63225,0.17462 0.192686,0.1686 0.192686,0.44559 0,0.27096 -0.192686,0.44558 -0.186664,0.1686 -0.63225,0.1686 h -2.890289 q -0.445587,0 -0.638272,-0.1686 -0.186665,-0.17462 -0.186665,-0.45161 0,-0.27096 0.186665,-0.43956 0.192685,-0.17462 0.638272,-0.17462 h 0.824936 v -4.82919 h -1.336758 v 1.16815 q 0,0.44559 -0.174622,0.63828 -0.1686,0.18666 -0.445586,0.18666 -0.270965,0 -0.445586,-0.18666 -0.168601,-0.19269 -0.168601,-0.63828 v -2.40857 l 6.394765,0.006 v 2.40255 q 0,0.44559 -0.174622,0.63828 -0.1686,0.18666 -0.445586,0.18666 -0.270965,0 -0.445586,-0.18666 -0.1686,-0.19269 -0.1686,-0.63828 v -1.16816 z"
       id="path11" />
    <path
       style="font-weight:bold;font-size:12.3319px;font-family:'Courier New';-inkscape-font-specification:'Courier New, Bold';text-align:center;text-anchor:middle;stroke-width:0.8;stroke-linecap:round;stroke-linejoin:round"
       d="m 53.410515,129.32746 v 4.82919 h 0.830958 q 0.445586,0 0.63225,0.17462 0.192686,0.1686 0.192686,0.44559 0,0.27096 -0.192686,0.44558 -0.186664,0.1686 -0.63225,0.1686 h -2.890289 q -0.445587,0 -0.638272,-0.1686 -0.186665,-0.17462 -0.186665,-0.45161 0,-0.27096 0.186665,-0.43956 0.192685,-0.17462 0.638272,-0.17462 h 0.824936 v -4.82919 h -1.336758 v 1.16815 q 0,0.44559 -0.174622,0.63828 -0.1686,0.18666 -0.445586,0.18666 -0.270965,0 -0.445586,-0.18666 -0.168601,-0.19269 -0.168601,-0.63828 v -2.40857 l 6.394765,0.006 v 2.40255 q 0,0.44559 -0.174622,0.63828 -0.1686,0.18666 -0.445586,0.18666 -0.270965,0 -0.445586,-0.18666 -0.1686,-0.19269 -0.1686,-0.63828 v -1.16816 z"
       id="path12" />
    <path
       style="font-weight:bold;font-size:12.3319px;font-family:'Courier New';-inkscape-font-specification:'Courier New, Bold';text-align:center;text-anchor:middle;stroke-width:0.8;stroke-linecap:round;stroke-linejoin:round"
       d="m 57.734192,133.45658 v 2.47481 c 0,0.26495 0.05419,0.43957 0.162579,0.52387 0.1686,0.13247 0.469672,0.1987 0.903215,0.1987 0.630243,0 1.212315,-0.13448 1.746216,-0.40343 0.204729,-0.10437 0.365301,-0.15656 0.481715,-0.15656 0.160572,0 0.299065,0.0602 0.415479,0.18064 0.120429,0.12043 0.180643,0.26696 0.180643,0.43957 0,0.16057 -0.06423,0.29907 -0.192686,0.41548 -0.1967,0.18867 -0.586086,0.36329 -1.168158,0.52386 -0.578058,0.15656 -1.065794,0.23484 -1.463209,0.23484 -0.766729,0 -1.34278,-0.16459 -1.728152,-0.49376 -0.381357,-0.33319 -0.572036,-0.74064 -0.572036,-1.22235 v -2.71567 h -0.445586 c -0.297058,0 -0.509816,-0.0562 -0.638273,-0.1686 -0.124443,-0.11641 -0.186664,-0.26695 -0.186664,-0.45161 0,-0.18064 0.06222,-0.32716 0.186664,-0.43956 0.128457,-0.11641 0.341215,-0.17462 0.638273,-0.17462 h 0.445586 v -1.11397 c 0,-0.29705 0.0562,-0.5078 0.1686,-0.63225 0.116415,-0.12845 0.266951,-0.19268 0.451608,-0.19268 0.180643,0 0.327164,0.0642 0.439564,0.19268 0.116415,0.12445 0.174622,0.3352 0.174622,0.63225 v 1.11397 h 2.282124 c 0.297057,0 0.507808,0.0582 0.632251,0.17462 0.128457,0.1124 0.192686,0.26093 0.192686,0.44559 0,0.18064 -1.267354,1.51451 -1.395811,1.63092 -0.124443,0.1124 0.257479,-1.01674 -0.03958,-1.01674 z"
       id="path13"
       sodipodi:nodetypes="cscscscsccscscscscscscscscscscsc" />
    <path
       style="font-weight:bold;font-size:12.3319px;font-family:'Courier New';-inkscape-font-specification:'Courier New, Bold';text-align:center;text-anchor:middle;stroke-width:0.344283;stroke-linecap:round;stroke-linejoin:round"
       d="m 59.134311,130.99464 h 1.163515 q 0.09588,-0.0778 0.181394,-0.0778 0.121793,0 0.19176,0.0803 0.07256,0.0803 0.07256,0.27468 v 0.25395 h -2.420319 v -0.56232 q 1.435606,-1.18425 1.733611,-1.52371 0.150299,-0.17362 0.150299,-0.32911 0,-0.19434 -0.171029,-0.34205 -0.168438,-0.1503 -0.450895,-0.1503 -0.285048,0 -0.474216,0.16584 -0.09847,0.0881 -0.158073,0.26173 -0.03628,0.10884 -0.101062,0.15548 -0.06219,0.0466 -0.155481,0.0466 -0.108836,0 -0.189168,-0.0777 -0.07774,-0.0777 -0.07774,-0.1814 0,-0.15548 0.142524,-0.3887 0.145116,-0.23322 0.419799,-0.37316 0.277274,-0.13993 0.601192,-0.13993 0.502722,0 0.824049,0.30578 0.321327,0.30319 0.321327,0.73594 0,0.22027 -0.09329,0.40944 -0.0907,0.18657 -0.440529,0.51827 -0.274683,0.26172 -1.070226,0.93807 z"
       id="path14" />
    <path
       style="font-weight:bold;font-size:12.3319px;font-family:'Courier New';-inkscape-font-specification:'Courier New, Bold';text-align:center;text-anchor:middle;stroke-width:0.8;stroke-linecap:round;stroke-linejoin:round"
       d="m 71.992702,113.83878 v 2.47481 c 0,0.26494 0.05419,0.43956 0.162579,0.52386 0.1686,0.13247 0.469672,0.19871 0.903215,0.19871 0.630243,0 1.212315,-0.13448 1.746216,-0.40344 0.204729,-0.10437 0.365301,-0.15655 0.481715,-0.15655 0.160572,0 0.299065,0.0602 0.415479,0.18064 0.120429,0.12043 0.180643,0.26695 0.180643,0.43956 0,0.16057 -0.06423,0.29907 -0.192686,0.41548 -0.1967,0.18867 -0.586086,0.3633 -1.168158,0.52387 -0.578058,0.15655 -1.065794,0.23483 -1.463209,0.23483 -0.766729,0 -1.34278,-0.16458 -1.728152,-0.49375 -0.381357,-0.33319 -0.572036,-0.74064 -0.572036,-1.22235 v -2.71567 h -0.445586 c -0.297058,0 -0.509816,-0.0562 -0.638273,-0.1686 -0.124443,-0.11641 -0.186664,-0.26695 -0.186664,-0.45161 0,-0.18064 0.06222,-0.32716 0.186664,-0.43956 0.128457,-0.11642 0.341215,-0.17463 0.638273,-0.17463 h 0.445586 v -1.11396 c 0,-0.29706 0.0562,-0.50781 0.1686,-0.63225 0.116415,-0.12846 0.266951,-0.19269 0.451608,-0.19269 0.180643,0 0.327164,0.0642 0.439564,0.19269 0.116415,0.12444 0.174622,0.33519 0.174622,0.63225 v 1.11396 h 1.223791 c 0.297057,0 -0.124443,-1.11664 0,-1.00022 0.128457,0.1124 1.88327,1.43578 1.88327,1.62043 0,0.18065 -1.754813,1.49815 -1.88327,1.61457 -0.124443,0.1124 0.297057,-1.00038 0,-1.00038 z"
       id="path15"
       sodipodi:nodetypes="cscscscsccscscscscscscscscscscsc" />
    <path
       style="font-weight:bold;font-size:12.3319px;font-family:'Courier New';-inkscape-font-specification:'Courier New, Bold';text-align:center;text-anchor:middle;stroke-width:0.344283;stroke-linecap:round;stroke-linejoin:round"
       d="m 76.095029,114.26768 h 1.163515 q 0.09588,-0.0778 0.181394,-0.0778 0.121793,0 0.19176,0.0803 0.07256,0.0803 0.07256,0.27468 v 0.25395 h -2.420319 v -0.56232 q 1.435606,-1.18425 1.733611,-1.52371 0.150299,-0.17362 0.150299,-0.32911 0,-0.19434 -0.171029,-0.34205 -0.168438,-0.1503 -0.450895,-0.1503 -0.285048,0 -0.474216,0.16584 -0.09847,0.0881 -0.158073,0.26173 -0.03628,0.10884 -0.101062,0.15548 -0.06219,0.0466 -0.155481,0.0466 -0.108836,0 -0.189168,-0.0777 -0.07774,-0.0777 -0.07774,-0.1814 0,-0.15548 0.142524,-0.3887 0.145116,-0.23322 0.419799,-0.37316 0.277274,-0.13993 0.601192,-0.13993 0.502722,0 0.824049,0.30578 0.321327,0.30319 0.321327,0.73594 0,0.22027 -0.09329,0.40944 -0.0907,0.18657 -0.440529,0.51827 -0.274683,0.26172 -1.070226,0.93807 z"
       id="path16" />
    <path
       style="font-weight:bold;font-size:12.3319px;font-family:'Courier New';-inkscape-font-specification:'Courier New, Bold';text-align:center;text-anchor:middle;stroke-width:0.8;stroke-linecap:round;stroke-linejoin:round"
       d="m 32.453618,150.66367 v 4.82919 h 0.830958 q 0.445586,0 0.63225,0.17462 0.192686,0.1686 0.192686,0.44559 0,0.27096 -0.192686,0.44558 -0.186664,0.1686 -0.63225,0.1686 h -2.890289 q -0.445587,0 -0.638272,-0.1686 -0.186665,-0.17462 -0.186665,-0.45161 0,-0.27096 0.186665,-0.43956 0.192685,-0.17462 0.638272,-0.17462 h 0.824936 v -4.82919 h -1.336758 v 1.16815 q 0,0.44559 -0.174622,0.63828 -0.1686,0.18666 -0.445586,0.18666 -0.270965,0 -0.445586,-0.18666 -0.168601,-0.19269 -0.168601,-0.63828 v -2.40857 l 6.394765,0.006 v 2.40255 q 0,0.44559 -0.174622,0.63828 -0.1686,0.18666 -0.445586,0.18666 -0.270965,0 -0.445586,-0.18666 -0.1686,-0.19269 -0.1686,-0.63828 v -1.16816 z"
       id="path17" />
    <path
       style="font-weight:bold;font-size:12.3319px;font-family:'Courier New';-inkscape-font-specification:'Courier New, Bold';text-align:center;text-anchor:middle;stroke-width:0.8;stroke-linecap:round;stroke-linejoin:round"
       d="m 36.777295,154.79279 v 2.47481 q 0,0.39742 0.162579,0.52387 0.2529,0.1987 0.903215,0.1987 0.945365,0 1.746216,-0.40343 0.307094,-0.15656 0.481715,-0.15656 0.240858,0 0.415479,0.18064 0.180643,0.18065 0.180643,0.43957 0,0.24086 -0.192686,0.41548 -0.29505,0.283 -1.168158,0.52386 -0.867087,0.23484 -1.463209,0.23484 -1.150094,0 -1.728152,-0.49376 -0.572036,-0.49978 -0.572036,-1.22235 v -2.71567 h -0.445586 q -0.445587,0 -0.638273,-0.1686 -0.186664,-0.17462 -0.186664,-0.45161 0,-0.27096 0.186664,-0.43956 0.192686,-0.17462 0.638273,-0.17462 h 0.445586 v -1.11397 q 0,-0.44558 0.1686,-0.63225 0.174622,-0.19268 0.451608,-0.19268 0.270964,0 0.439564,0.19268 0.174622,0.18667 0.174622,0.63225 v 1.11397 h 2.282124 q 0.445586,0 0.632251,0.17462 0.192686,0.1686 0.192686,0.44559 0,0.27096 -0.192686,0.44558 -0.186665,0.1686 -0.632251,0.1686 z"
       id="path18" />
    <path
       style="font-weight:bold;font-size:12.3319px;font-family:'Courier New';-inkscape-font-specification:'Courier New, Bold';text-align:center;text-anchor:middle;fill:#2f74b9;fill-opacity:1;stroke:#163858;stroke-width:0.15;stroke-linecap:round;stroke-linejoin:round;stroke-dasharray:none;stroke-opacity:1"
       d="m 50.960309,150.66367 v 4.82919 h 0.830958 q 0.445586,0 0.63225,0.17462 0.192686,0.1686 0.192686,0.44559 0,0.27096 -0.192686,0.44558 -0.186664,0.1686 -0.63225,0.1686 h -2.890289 q -0.445587,0 -0.638272,-0.1686 -0.186665,-0.17462 -0.186665,-0.45161 0,-0.27096 0.186665,-0.43956 0.192685,-0.17462 0.638272,-0.17462 h 0.824936 v -4.82919 h -1.336758 v 1.16815 q 0,0.44559 -0.174622,0.63828 -0.1686,0.18666 -0.445586,0.18666 -0.270965,0 -0.445586,-0.18666 -0.168601,-0.19269 -0.168601,-0.63828 v -2.40857 l 6.394765,0.006 v 2.40255 q 0,0.44559 -0.174622,0.63828 -0.1686,0.18666 -0.445586,0.18666 -0.270965,0 -0.445586,-0.18666 -0.1686,-0.19269 -0.1686,-0.63828 v -1.16816 z"
       id="path19" />
    <path
       style="font-weight:bold;font-size:12.3319px;font-family:'Courier New';-inkscape-font-specification:'Courier New, Bold';text-align:center;text-anchor:middle;fill:#dcb908;fill-opacity:1;stroke:#534703;stroke-width:0.15;stroke-linecap:round;stroke-linejoin:round;stroke-dasharray:none;stroke-opacity:1"
       d="m 55.283986,154.79279 v 2.47481 q 0,0.39742 0.162579,0.52387 0.2529,0.1987 0.903215,0.1987 0.945365,0 1.746216,-0.40343 0.307094,-0.15656 0.481715,-0.15656 0.240858,0 0.415479,0.18064 0.180643,0.18065 0.180643,0.43957 0,0.24086 -0.192686,0.41548 -0.29505,0.283 -1.168158,0.52386 -0.867087,0.23484 -1.463209,0.23484 -1.150094,0 -1.728152,-0.49376 -0.572036,-0.49978 -0.572036,-1.22235 v -2.71567 h -0.445586 q -0.445587,0 -0.638273,-0.1686 -0.186664,-0.17462 -0.186664,-0.45161 0,-0.27096 0.186664,-0.43956 0.192686,-0.17462 0.638273,-0.17462 h 0.445586 v -1.11397 q 0,-0.44558 0.1686,-0.63225 0.174622,-0.19268 0.451608,-0.19268 0.270964,0 0.439564,0.19268 0.174622,0.18667 0.174622,0.63225 v 1.11397 h 2.282124 q 0.445586,0 0.632251,0.17462 0.192686,0.1686 0.192686,0.44559 0,0.27096 -0.192686,0.44558 -0.186665,0.1686 -0.632251,0.1686 z"
       id="path20" />
    <g
       id="g22"
       transform="translate(-0.83631401,0.46140733)">
      <path
         style="font-weight:bold;font-size:12.3319px;font-family:'Courier New';-inkscape-font-specification:'Courier New, Bold';text-align:center;text-anchor:middle;fill:#2f74b9;fill-opacity:1;stroke:#163858;stroke-width:0.15;stroke-linecap:round;stroke-linejoin:round;stroke-dasharray:none;stroke-opacity:1"
         d="M -48.010257,95.411809 V 100.241 h 0.830958 q 0.445586,0 0.63225,0.17462 0.192686,0.1686 0.192686,0.44559 0,0.27096 -0.192686,0.44558 -0.186664,0.1686 -0.63225,0.1686 h -2.890289 q -0.445587,0 -0.638272,-0.1686 -0.186665,-0.17462 -0.186665,-0.45161 0,-0.27096 0.186665,-0.43956 0.192685,-0.17462 0.638272,-0.17462 h 0.824936 v -4.829191 h -1.336758 v 1.16815 q 0,0.44559 -0.174622,0.63828 -0.1686,0.18666 -0.445586,0.18666 -0.270965,0 -0.445586,-0.18666 -0.168601,-0.19269 -0.168601,-0.63828 v -2.40857 l 6.394765,0.006 v 2.40255 q 0,0.44559 -0.174622,0.63828 -0.1686,0.18666 -0.445586,0.18666 -0.270965,0 -0.445586,-0.18666 -0.1686,-0.19269 -0.1686,-0.63828 v -1.16816 z"
         id="path21" />
      <path
         style="font-weight:bold;font-size:12.3319px;font-family:'Courier New';-inkscape-font-specification:'Courier New, Bold';text-align:center;text-anchor:middle;fill:#dcb908;fill-opacity:1;stroke:#534703;stroke-width:0.15;stroke-linecap:round;stroke-linejoin:round;stroke-dasharray:none;stroke-opacity:1"
         d="m -43.68658,99.540929 v 2.474811 q 0,0.39742 0.162579,0.52387 0.2529,0.1987 0.903215,0.1987 0.945365,0 1.746216,-0.40343 0.307094,-0.15656 0.481715,-0.15656 0.240858,0 0.415479,0.18064 0.180643,0.18065 0.180643,0.43957 0,0.24086 -0.192686,0.41548 -0.29505,0.283 -1.168158,0.52386 -0.867087,0.23484 -1.463209,0.23484 -1.150094,0 -1.728152,-0.49376 -0.572036,-0.49978 -0.572036,-1.22235 v -2.715671 h -0.445586 q -0.445587,0 -0.638273,-0.1686 -0.186664,-0.17462 -0.186664,-0.45161 0,-0.27096 0.186664,-0.43956 0.192686,-0.17462 0.638273,-0.17462 h 0.445586 v -1.11397 q 0,-0.44558 0.1686,-0.63225 0.174622,-0.19268 0.451608,-0.19268 0.270964,0 0.439564,0.19268 0.174622,0.18667 0.174622,0.63225 v 1.11397 h 2.282124 q 0.445586,0 0.632251,0.17462 0.192686,0.1686 0.192686,0.44559 0,0.27096 -0.192686,0.44558 -0.186665,0.1686 -0.632251,0.1686 z"
         id="path22" />
    </g>
  </g>
</svg>
