<?xml version="1.0" encoding="UTF-8" standalone="no"?>
<!-- Created with Inkscape (http://www.inkscape.org/) -->

<svg
   width="14mm"
   height="14.000001mm"
   viewBox="0 0 14 14.000001"
   version="1.1"
   id="svg1"
   xmlns="http://www.w3.org/2000/svg"
   xmlns:svg="http://www.w3.org/2000/svg">
  <defs
     id="defs1" />
  <g
     id="layer1"
     transform="translate(53.642583,-92.533465)">
    <g
       id="g22"
       transform="translate(-0.83631401,0.46140733)">
      <path
         style="font-weight:bold;font-size:12.3319px;font-family:'Courier New';-inkscape-font-specification:'Courier New, Bold';text-align:center;text-anchor:middle;fill:#2f74b9;fill-opacity:1;stroke:#163858;stroke-width:0.15;stroke-linecap:round;stroke-linejoin:round;stroke-dasharray:none;stroke-opacity:1"
         d="M -48.010257,95.411809 V 100.241 h 0.830958 q 0.445586,0 0.63225,0.17462 0.192686,0.1686 0.192686,0.44559 0,0.27096 -0.192686,0.44558 -0.186664,0.1686 -0.63225,0.1686 h -2.890289 q -0.445587,0 -0.638272,-0.1686 -0.186665,-0.17462 -0.186665,-0.45161 0,-0.27096 0.186665,-0.43956 0.192685,-0.17462 0.638272,-0.17462 h 0.824936 v -4.829191 h -1.336758 v 1.16815 q 0,0.44559 -0.174622,0.63828 -0.1686,0.18666 -0.445586,0.18666 -0.270965,0 -0.445586,-0.18666 -0.168601,-0.19269 -0.168601,-0.63828 v -2.40857 l 6.394765,0.006 v 2.40255 q 0,0.44559 -0.174622,0.63828 -0.1686,0.18666 -0.445586,0.18666 -0.270965,0 -0.445586,-0.18666 -0.1686,-0.19269 -0.1686,-0.63828 v -1.16816 z"
         id="path21" />
      <path
         style="font-weight:bold;font-size:12.3319px;font-family:'Courier New';-inkscape-font-specification:'Courier New, Bold';text-align:center;text-anchor:middle;fill:#dcb908;fill-opacity:1;stroke:#534703;stroke-width:0.15;stroke-linecap:round;stroke-linejoin:round;stroke-dasharray:none;stroke-opacity:1"
         d="m -43.68658,99.540929 v 2.474811 q 0,0.39742 0.162579,0.52387 0.2529,0.1987 0.903215,0.1987 0.945365,0 1.746216,-0.40343 0.307094,-0.15656 0.481715,-0.15656 0.240858,0 0.415479,0.18064 0.180643,0.18065 0.180643,0.43957 0,0.24086 -0.192686,0.41548 -0.29505,0.283 -1.168158,0.52386 -0.867087,0.23484 -1.463209,0.23484 -1.150094,0 -1.728152,-0.49376 -0.572036,-0.49978 -0.572036,-1.22235 v -2.715671 h -0.445586 q -0.445587,0 -0.638273,-0.1686 -0.186664,-0.17462 -0.186664,-0.45161 0,-0.27096 0.186664,-0.43956 0.192686,-0.17462 0.638273,-0.17462 h 0.445586 v -1.11397 q 0,-0.44558 0.1686,-0.63225 0.174622,-0.19268 0.451608,-0.19268 0.270964,0 0.439564,0.19268 0.174622,0.18667 0.174622,0.63225 v 1.11397 h 2.282124 q 0.445586,0 0.632251,0.17462 0.192686,0.1686 0.192686,0.44559 0,0.27096 -0.192686,0.44558 -0.186665,0.1686 -0.632251,0.1686 z"
         id="path22" />
    </g>
  </g>
</svg>
