<svg xmlns="http://www.w3.org/2000/svg" width="14mm" height="52.913" viewBox="0 0 14 14"><path d="M-48.01 95.412v4.829h.83q.446 0 .633.175.193.168.193.445 0 .271-.193.446-.187.168-.632.168h-2.89q-.446 0-.639-.168-.187-.175-.187-.452 0-.27.187-.44.193-.174.638-.174h.825v-4.83h-1.336v1.169q0 .446-.175.638-.169.187-.446.187-.27 0-.445-.187-.169-.192-.169-.638v-2.409l6.395.006v2.403q0 .446-.175.638-.168.187-.445.187-.271 0-.446-.187-.168-.192-.168-.638v-1.168z" style="font-weight:700;font-size:12.3319px;font-family:&quot;Courier New&quot;;-inkscape-font-specification:&quot;Courier New, Bold&quot;;text-align:center;text-anchor:middle;fill:#2f74b9;fill-opacity:1;stroke:#163858;stroke-width:.15;stroke-linecap:round;stroke-linejoin:round;stroke-dasharray:none;stroke-opacity:1" transform="translate(52.806 -92.072)"/><path d="M-43.687 99.54v2.476q0 .397.163.524.253.198.903.198.946 0 1.746-.403.308-.157.482-.157.241 0 .416.181.18.18.18.44 0 .24-.192.415-.295.283-1.169.524-.867.235-1.463.235-1.15 0-1.728-.494-.572-.5-.572-1.222V99.54h-.446q-.445 0-.638-.169-.186-.174-.186-.451 0-.271.186-.44.193-.174.638-.174h.446v-1.114q0-.446.169-.633.174-.192.451-.192.271 0 .44.192.174.187.174.633v1.114h2.283q.445 0 .632.174.192.169.192.446 0 .27-.192.445-.187.169-.632.169z" style="font-weight:700;font-size:12.3319px;font-family:&quot;Courier New&quot;;-inkscape-font-specification:&quot;Courier New, Bold&quot;;text-align:center;text-anchor:middle;fill:#dcb908;fill-opacity:1;stroke:#534703;stroke-width:.15;stroke-linecap:round;stroke-linejoin:round;stroke-dasharray:none;stroke-opacity:1" transform="translate(52.806 -92.072)"/></svg>